<?xml version="1.0" encoding="utf-8"?>
<!-- Generator: Adobe Illustrator 16.2.1, SVG Export Plug-In . SVG Version: 6.00 Build 0)  -->
<svg version="1.2" baseProfile="tiny" id="Layer_1" xmlns="http://www.w3.org/2000/svg" xmlns:xlink="http://www.w3.org/1999/xlink"
	 x="0px" y="0px" width="288px" height="288px" viewBox="0 0 288 288" preserveAspectRatio="none" xml:space="preserve">
<path d="M144-0.001c-47.718,0-86.4,38.683-86.4,86.4c0,0.958,0.027,1.943,0.075,2.948c0.25,7.459,1.442,14.676,3.467,21.54
	C77.376,176.954,144,288,144,288s66.625-111.049,82.858-177.115c2.025-6.863,3.217-14.08,3.468-21.538
	c0.047-1.004,0.074-1.99,0.074-2.948C230.4,38.682,191.718-0.001,144-0.001z M144,129.6c-23.858,0-43.2-19.341-43.2-43.2
	s19.341-43.2,43.2-43.2c23.859,0,43.2,19.341,43.2,43.2S167.859,129.6,144,129.6z"/>
</svg>
